Coordinates
version=1
nRows=26
nColumns=24
inDegrees=yes

Units are S.I. units (second, meters, Newtons, ...)
Angles are in degrees.

endheader
time	pelvis_tilt	pelvis_list	pelvis_rotation	pelvis_tx	pelvis_ty	pelvis_tz	hip_flexion_r	hip_adduction_r	hip_rotation_r	knee_angle_r	ankle_angle_r	subtalar_angle_r	mtp_angle_r	hip_flexion_l	hip_adduction_l	hip_rotation_l	knee_angle_l	ankle_angle_l	subtalar_angle_l	mtp_angle_l	lumbar_extension	lumbar_bending	lumbar_rotation
      7.07000000	      2.28669516	     -5.85693469	      0.04141197	     -0.96239319	      0.91965306	      0.18626004	    -14.85000891	     10.52067173	      0.05330353	     -7.66297815	     17.10712623	      0.05352337	      0.00000000	     14.64970031	     -2.74170331	     -1.93082318	      0.85664834	      6.19387940	     -0.14867691	      0.00000000	    -20.69334398	      6.56454727	      5.66017422
      7.08000000	      2.41629992	     -5.92930824	     -0.24778298	     -0.95273838	      0.91926111	      0.18551305	    -15.06918849	     10.40429132	      0.37728081	     -8.77322219	     16.87784338	      0.12035140	      0.00000000	     14.29634204	     -2.82226934	     -1.12786493	      0.21828923	      5.28227544	     -1.00152903	      0.00000000	    -20.75762479	      6.53269247	      5.77564826
      7.09000000	      2.56973857	     -5.95745064	     -0.56293596	     -0.94293786	      0.91913374	      0.18474817	    -15.22407081	     10.22402485	      0.65911832	    -10.05086876	     16.48077449	      0.19180102	      0.00000000	     13.81260735	     -2.84936104	     -0.36132388	     -0.27244876	      4.01054005	     -2.05009222	      0.00000000	    -20.82735765	      6.44577687	      5.84357219
      7.10000000	      2.72236993	     -5.91613883	     -0.89204314	     -0.93302284	      0.91929891	      0.18398222	    -15.26504416	      9.96042396	      0.85754925	    -11.52349583	     15.93502655	      0.26592987	      0.00000000	     13.24602810	     -2.79686083	      0.31920869	     -0.62565409	      2.45956155	     -3.24675596	      0.00000000	    -20.86654535	      6.26382759	      5.89630476
      7.11000000	      2.89329283	     -5.81681592	     -1.21927860	     -0.92304864	      0.91982986	      0.18321506	    -15.18816366	      9.62921628	      0.92825202	    -13.21704486	     15.21157827	      0.36729763	      0.00000000	     12.61150403	     -2.67696677	      0.77833369	     -0.89085919	      0.81994312	     -4.43444690	      0.00000000	    -20.91055435	      6.01043238	      5.90237387
      7.12000000	      3.07582699	     -5.66644319	     -1.50969876	     -0.91307658	      0.92072574	      0.18242778	    -14.96339502	      9.24572179	      0.81336497	    -15.14719546	     14.27540017	      0.49099573	      0.00000000	     11.96483254	     -2.49488569	      0.99236800	     -1.15977192	     -0.71339029	     -5.46721650	      0.00000000	    -20.95093515	      5.69801154	      5.83513703
      7.13000000	      3.26358978	     -5.46907111	     -1.75904199	     -0.90314960	      0.92196480	      0.18162973	    -14.56517304	      8.81150935	      0.49282577	    -17.32774328	     13.09752298	      0.58284451	      0.00000000	     11.32926131	     -2.26045006	      0.88077623	     -1.47390334	     -1.91686548	     -6.06869402	      0.00000000	    -20.98510285	      5.33135680	      5.71288281
      7.14000000	      3.46979057	     -5.27634055	     -1.90630969	     -0.89333427	      0.92349921	      0.18073073	    -14.01366242	      8.38389926	     -0.08364087	    -19.71280703	     11.50055019	      0.60732189	      0.00000000	     10.73768434	     -2.01978073	      0.53920789	     -1.91970432	     -2.59507448	     -6.22383411	      0.00000000	    -21.04241710	      5.00245376	      5.43658115
      7.15000000	      3.67500917	     -5.05696873	     -2.02220981	     -0.88366727	      0.92522402	      0.17979364	    -13.26890872	      7.90615288	     -0.81160223	    -22.33294333	      9.61839641	      0.57977066	      0.00000000	     10.15028699	     -1.75150673	      0.20788650	     -2.40695117	     -2.95802779	     -6.33395695	      0.00000000	    -21.11150941	      4.64890871	      5.14280678
      7.16000000	      3.80755308	     -4.85293401	     -2.12418349	     -0.87420346	      0.92697250	      0.17886255	    -12.26974832	      7.43872866	     -1.54055201	    -25.13543904	      7.25134607	      0.17928243	      0.00000000	      9.68572882	     -1.51459055	     -0.44341194	     -2.98835936	     -2.75802550	     -5.82688015	      0.00000000	    -21.10916446	      4.32769175	      4.82508258
      7.17000000	      3.85286809	     -4.64746742	     -2.20929723	     -0.86494771	      0.92859377	      0.17788817	    -11.00714411	      6.95015577	     -2.30207460	    -28.09815325	      4.52484969	     -0.42824431	      0.00000000	      9.30865219	     -1.27832555	     -0.98456364	     -3.56540573	     -2.28289356	     -5.30204354	      0.00000000	    -21.01766707	      4.02681459	      4.44626168
      7.18000000	      3.93710984	     -4.44110522	     -2.35574583	     -0.85592943	      0.93023323	      0.17699268	     -9.65588188	      6.43246166	     -2.93609887	    -31.13679063	      1.44437857	     -1.27643363	      0.00000000	      8.89086290	     -1.06204870	     -1.89564205	     -4.13308046	     -1.57903768	     -4.24236221	      0.00000000	    -21.03232154	      3.71338003	      4.12737811
      7.19000000	      3.84527517	     -4.25391891	     -2.53067909	     -0.84715236	      0.93144179	      0.17608220	     -7.98357244	      5.93043115	     -3.47400434	    -34.25448285	     -1.77444705	     -2.40839319	      0.00000000	      8.61902824	     -0.85082667	     -2.32322796	     -4.61360201	     -0.91472950	     -3.82896874	      0.00000000	    -20.86339693	      3.45823217	      3.79727602
      7.20000000	      3.82198314	     -4.04985549	     -2.79099098	     -0.83859436	      0.93259857	      0.17532126	     -6.31265418	      5.41341672	     -3.79681782	    -37.33420516	     -5.06800619	     -3.79473567	      0.00000000	      8.25657214	     -0.63519079	     -3.08920535	     -5.03939793	     -0.11441241	     -2.94314639	      0.00000000	    -20.84334596	      3.14733847	      3.55087559
      7.21000000	      3.65105457	     -3.86365160	     -3.13410840	     -0.83027293	      0.93332440	      0.17462218	     -4.39986514	      4.93205247	     -3.94917095	    -40.40924017	     -8.04034073	     -5.25618434	      0.00000000	      7.99487032	     -0.41528174	     -3.43530405	     -5.34098006	      0.47789610	     -2.87134484	      0.00000000	    -20.69490340	      2.88206697	      3.35041215
      7.22000000	      3.54250279	     -3.66818156	     -3.52764589	     -0.82213404	      0.93396303	      0.17400624	     -2.53250254	      4.47350626	     -3.94408428	    -43.36156148	    -10.61972354	     -6.90417792	      0.00000000	      7.62930891	     -0.17182870	     -3.79771634	     -5.55205046	      1.06301816	     -2.75714950	      0.00000000	    -20.68378693	      2.59994269	      3.21497385
      7.23000000	      3.43877062	     -3.46798640	     -3.97887290	     -0.81414691	      0.93446129	      0.17348280	     -0.65836008	      4.06315380	     -3.77043731	    -46.17960026	    -12.55769788	     -8.56348562	      0.00000000	      7.21235623	      0.09203832	     -4.15346189	     -5.65297438	      1.57374483	     -2.81740415	      0.00000000	    -20.72599361	      2.31441693	      3.04235927
      7.24000000	      3.38219431	     -3.28419717	     -4.43285523	     -0.80630113	      0.93492983	      0.17297839	      1.14949158	      3.71366111	     -3.54373469	    -48.79951947	    -13.82657679	    -10.27770881	      0.00000000	      6.71210404	      0.35978519	     -4.46160106	     -5.67061841	      2.04962743	     -2.93605926	      0.00000000	    -20.87841980	      2.06296238	      2.90103359
      7.25000000	      3.36138562	     -3.13400161	     -4.86313448	     -0.79855410	      0.93540549	      0.17247146	      2.87960344	      3.44936195	     -3.29658169	    -51.16992766	    -14.47046261	    -12.03977911	      0.00000000	      6.14349417	      0.61148697	     -4.74910699	     -5.61125768	      2.49338455	     -3.07002798	      0.00000000	    -21.10784670	      1.87013798	      2.74526331
      7.26000000	      3.37546531	     -3.04037134	     -5.23663792	     -0.79089358	      0.93594196	      0.17192611	      4.51303042	      3.28744273	     -3.08470848	    -53.24090830	    -14.58090928	    -13.84441862	      0.00000000	      5.52737762	      0.81994695	     -5.00464450	     -5.51850881	      2.94091941	     -3.16704787	      0.00000000	    -21.40905043	      1.77183630	      2.57262092
      7.27000000	      3.39740611	     -2.98574385	     -5.56546359	     -0.78325863	      0.93653167	      0.17135178	      6.07140000	      3.20231602	     -2.90588194	    -54.99508051	    -14.23828192	    -15.55583700	      0.00000000	      4.87564493	      0.99954903	     -5.26886429	     -5.35907913	      3.32603342	     -3.24065656	      0.00000000	    -21.71609217	      1.74870791	      2.35194665
      7.28000000	      3.42273860	     -2.99299926	     -5.82954355	     -0.77565620	      0.93718656	      0.17073960	      7.54497817	      3.20729375	     -2.80202346	    -56.40160125	    -13.57780797	    -17.14528984	      0.00000000	      4.22118274	      1.12144539	     -5.47849435	     -5.19739059	      3.70954549	     -3.26861499	      0.00000000	    -22.01853063	      1.82303310	      2.11216520
      7.29000000	      3.43538443	     -3.05369373	     -6.03315780	     -0.76805931	      0.93788101	      0.17009705	      8.94560479	      3.28995070	     -2.76646215	    -57.45723474	    -12.66337179	    -18.51870465	      0.00000000	      3.58331016	      1.19051623	     -5.62686615	     -5.04060888	      4.09513612	     -3.27991347	      0.00000000	    -22.27981971	      1.98349670	      1.85417346
      7.30000000	      3.45599517	     -3.17284719	     -6.18140210	     -0.76044281	      0.93862975	      0.16942615	     10.23978819	      3.43254510	     -2.82524007	    -58.15468619	    -11.54114142	    -19.58900176	      0.00000000	      2.93462420	      1.20239876	     -5.68255190	     -4.88738514	      4.49206448	     -3.31418865	      0.00000000	    -22.51469009	      2.22656433	      1.61910764
      7.31000000	      3.39917461	     -3.33192502	     -6.28503249	     -0.75283673	      0.93929158	      0.16876538	     11.52822158	      3.64665069	     -2.92286113	    -58.51944986	    -10.34153930	    -20.42747020	      0.00000000	      2.39307171	      1.15839453	     -5.70478741	     -4.77774585	      4.89722459	     -3.33406514	      0.00000000	    -22.61243071	      2.52686828	      1.37887043
      7.32000000	      3.30088122	     -3.50421393	     -6.35630044	     -0.74522816	      0.93988240	      0.16808828	     12.77691532	      3.87413495	     -3.08047732	    -58.57591501	     -8.91167397	    -20.79835430	      0.00000000	      1.92083213	      1.09107658	     -5.72197248	     -4.71297928	      5.28356168	     -3.32336023	      0.00000000	    -22.62020797	      2.86059685	      1.13266334
